# Blender v2.79 (sub 0) OBJ File: 'mill_down.mtl'
# www.blender.org
mtllib mill_down.mtl
o down
v 0.124674 0.312499 0.125327
v 0.125983 0.311190 0.875324
v 0.874672 0.313811 0.124020
v 0.875981 0.312502 0.874018
v 0.126528 -0.001309 0.874778
v 0.125219 0.000000 0.124780
v 0.876526 0.000003 0.873471
v 0.875217 0.001312 0.123473
vt 0.125000 0.625000
vt 0.125000 0.312500
vt 0.875000 0.625000
vt 0.875000 0.312500
vt 0.125000 0.625000
vt 0.125000 0.312500
vt 0.875000 0.625000
vt 0.875000 0.312500
vt 0.125000 0.625000
vt 0.125000 0.312500
vt 0.875000 0.625000
vt 0.875000 0.312500
vt 0.125000 0.625000
vt 0.125000 0.312500
vt 0.875000 0.625000
vt 0.875000 0.312500
vt 0.125000 0.875000
vt 0.125000 0.125000
vt 0.875000 0.875000
vt 0.875000 0.125000
vt 0.125000 0.875000
vt 0.125000 0.125000
vt 0.875000 0.875000
vt 0.875000 0.125000
vn 1.0000 0.0017 -0.0017
vn -1.0000 -0.0017 0.0017
vn 0.0017 -0.0017 1.0000
vn -0.0017 0.0017 -1.0000
vn -0.0017 1.0000 0.0017
vn 0.0017 -1.0000 -0.0017
usemtl 1
s 1
f 4/1/1 7/2/1 3/3/1
f 7/2/1 8/4/1 3/3/1
f 1/5/2 6/6/2 2/7/2
f 6/6/2 5/8/2 2/7/2
f 2/9/3 5/10/3 4/11/3
f 5/10/3 7/12/3 4/11/3
f 3/13/4 8/14/4 1/15/4
f 8/14/4 6/16/4 1/15/4
usemtl 0
f 1/17/5 2/18/5 3/19/5
f 2/18/5 4/20/5 3/19/5
f 5/21/6 6/22/6 7/23/6
f 6/22/6 8/24/6 7/23/6
