# Blender v2.79 (sub 0) OBJ File: 'mill_top.mtl'
# www.blender.org
mtllib mill_top.mtl
o top
v -0.375872 0.624999 -0.374127
v -0.374563 0.623689 0.375871
v 0.374126 0.626310 -0.375434
v 0.375435 0.625001 0.374564
v 0.375981 0.312502 0.374018
v 0.374672 0.313811 -0.375980
v -0.375326 0.312499 -0.374673
v -0.374017 0.311190 0.375324
vt 0.125000 0.625000
vt 0.125000 0.312500
vt 0.875000 0.625000
vt 0.875000 0.312500
vt 0.125000 0.625000
vt 0.125000 0.312500
vt 0.875000 0.625000
vt 0.875000 0.312500
vt 0.125000 0.625000
vt 0.125000 0.312500
vt 0.875000 0.625000
vt 0.875000 0.312500
vt 0.125000 0.625000
vt 0.125000 0.312500
vt 0.875000 0.625000
vt 0.875000 0.312500
vt 0.125000 0.875000
vt 0.125000 0.125000
vt 0.875000 0.875000
vt 0.875000 0.125000
vt 0.125000 0.875000
vt 0.125000 0.125000
vt 0.875000 0.875000
vt 0.875000 0.125000
vn 1.0000 0.0018 -0.0017
vn 1.0000 0.0017 -0.0017
vn -1.0000 -0.0018 0.0017
vn 0.0017 -0.0017 1.0000
vn -0.0017 0.0017 -1.0000
vn 0.0017 -1.0000 -0.0017
vn -0.0017 1.0000 0.0017
usemtl 1
s 1
f 4/1/1 5/2/1 3/3/1
f 5/2/1 6/4/2 3/3/1
f 1/5/3 7/6/3 2/7/3
f 7/6/3 8/8/3 2/7/3
f 2/9/4 8/10/4 4/11/4
f 8/10/4 5/12/4 4/11/4
f 3/13/5 6/14/5 1/15/5
f 6/14/5 7/16/5 1/15/5
usemtl 0
f 8/17/6 7/18/6 5/19/6
f 7/18/6 6/20/6 5/19/6
usemtl 2
f 1/21/7 2/22/7 3/23/7
f 2/22/7 4/24/7 3/23/7
